<?xml version="1.0" standalone="no"?>
<!DOCTYPE svg PUBLIC "-//W3C//DTD SVG 20010904//EN"
 "http://www.w3.org/TR/2001/REC-SVG-20010904/DTD/svg10.dtd">
<svg version="1.0" xmlns="http://www.w3.org/2000/svg"
 width="500.000000pt" height="500.000000pt" viewBox="0 0 500.000000 500.000000"
 preserveAspectRatio="xMidYMid meet">

<g transform="translate(0.000000,500.000000) scale(0.100000,-0.100000)"
fill="#000000" stroke="none">
<path d="M1370 2526 l0 -386 198 0 c278 0 358 16 424 87 34 36 48 73 48 129 0
89 -51 154 -137 176 l-46 11 39 20 c56 28 71 44 90 93 24 63 12 125 -32 174
-58 64 -96 72 -356 78 l-228 4 0 -386z m441 235 c21 -22 29 -39 29 -66 0 -27
-8 -44 -29 -66 l-29 -29 -131 0 -131 0 0 95 0 95 131 0 131 0 29 -29z m15
-296 c74 -31 81 -143 11 -185 -28 -17 -51 -20 -174 -20 l-143 0 0 110 0 110
135 0 c97 0 146 -4 171 -15z"/>
<path d="M2170 2525 l0 -385 80 0 80 0 0 150 0 151 96 -3 96 -3 91 -147 90
-148 83 0 c46 0 84 3 84 6 0 3 -45 75 -100 160 -55 86 -100 157 -100 160 0 2
6 4 13 4 7 0 34 13 60 29 102 66 128 229 50 321 -60 72 -143 90 -420 90 l-203
0 0 -385z m432 255 c70 -20 100 -99 64 -169 -23 -43 -59 -53 -203 -59 l-133
-5 0 122 0 121 118 0 c64 0 134 -5 154 -10z"/>
<path d="M2980 2525 l0 -385 80 0 80 0 0 143 0 144 44 31 c24 18 48 32 53 32
4 0 69 -79 143 -175 l135 -175 93 0 92 0 -175 219 c-96 120 -175 222 -175 227
0 5 73 80 162 166 l163 157 -90 1 -90 0 -177 -177 -178 -178 0 178 0 177 -80
0 -80 0 0 -385z"/>
</g>
</svg>
